<mxfile host="Electron" modified="2023-04-28T12:17:42.030Z" agent="Mozilla/5.0 (Windows NT 10.0; Win64; x64) AppleWebKit/537.36 (KHTML, like Gecko) draw.io/21.2.1 Chrome/112.0.5615.87 Electron/24.1.2 Safari/537.36" etag="VFzcwYhB32sHONiuFxdf" version="21.2.1" type="device">
  <diagram name="Seite-1" id="UEnGTZyNJg2kaWz5BnDM">
    <mxGraphModel dx="780" dy="496" grid="1" gridSize="10" guides="1" tooltips="1" connect="1" arrows="1" fold="1" page="1" pageScale="1" pageWidth="827" pageHeight="1169" math="1" shadow="0">
      <root>
        <mxCell id="0" />
        <mxCell id="1" parent="0" />
        <mxCell id="Zqo0xz4QBt4HZKykq4dD-1" value="" style="endArrow=block;html=1;rounded=0;endFill=1;endSize=3;" parent="1" edge="1">
          <mxGeometry width="50" height="50" relative="1" as="geometry">
            <mxPoint x="200" y="240" as="sourcePoint" />
            <mxPoint x="500" y="240" as="targetPoint" />
          </mxGeometry>
        </mxCell>
        <mxCell id="Zqo0xz4QBt4HZKykq4dD-2" value="" style="endArrow=block;html=1;rounded=0;endFill=1;endSize=3;" parent="1" edge="1">
          <mxGeometry width="50" height="50" relative="1" as="geometry">
            <mxPoint x="200" y="240" as="sourcePoint" />
            <mxPoint x="200" y="10" as="targetPoint" />
          </mxGeometry>
        </mxCell>
        <mxCell id="Zqo0xz4QBt4HZKykq4dD-3" value="" style="endArrow=none;html=1;rounded=0;strokeWidth=0.6;strokeColor=#99c182;" parent="1" edge="1">
          <mxGeometry width="50" height="50" relative="1" as="geometry">
            <mxPoint x="200" y="220" as="sourcePoint" />
            <mxPoint x="490" y="220" as="targetPoint" />
            <Array as="points">
              <mxPoint x="250" y="220" />
              <mxPoint x="250" y="200" />
              <mxPoint x="410" y="200" />
              <mxPoint x="410" y="220" />
            </Array>
          </mxGeometry>
        </mxCell>
        <mxCell id="Zqo0xz4QBt4HZKykq4dD-4" value="" style="endArrow=none;html=1;rounded=0;strokeWidth=0.6;strokeColor=#5e70d4;" parent="1" edge="1">
          <mxGeometry width="50" height="50" relative="1" as="geometry">
            <mxPoint x="200" y="175" as="sourcePoint" />
            <mxPoint x="490" y="175" as="targetPoint" />
          </mxGeometry>
        </mxCell>
        <mxCell id="Zqo0xz4QBt4HZKykq4dD-8" value="" style="endArrow=none;html=1;rounded=0;" parent="1" edge="1">
          <mxGeometry width="50" height="50" relative="1" as="geometry">
            <mxPoint x="250" y="245" as="sourcePoint" />
            <mxPoint x="250" y="235" as="targetPoint" />
          </mxGeometry>
        </mxCell>
        <mxCell id="Zqo0xz4QBt4HZKykq4dD-9" value="" style="endArrow=none;html=1;rounded=0;" parent="1" edge="1">
          <mxGeometry width="50" height="50" relative="1" as="geometry">
            <mxPoint x="329" y="245" as="sourcePoint" />
            <mxPoint x="329" y="235" as="targetPoint" />
          </mxGeometry>
        </mxCell>
        <mxCell id="Zqo0xz4QBt4HZKykq4dD-10" value="" style="endArrow=none;html=1;rounded=0;" parent="1" edge="1">
          <mxGeometry width="50" height="50" relative="1" as="geometry">
            <mxPoint x="410" y="245" as="sourcePoint" />
            <mxPoint x="410" y="235" as="targetPoint" />
          </mxGeometry>
        </mxCell>
        <mxCell id="Zqo0xz4QBt4HZKykq4dD-6" value="" style="endArrow=none;html=1;rounded=0;strokeWidth=0.6;strokeColor=#9875a7;" parent="1" edge="1">
          <mxGeometry width="50" height="50" relative="1" as="geometry">
            <mxPoint x="200" y="136" as="sourcePoint" />
            <mxPoint x="240" y="136" as="targetPoint" />
          </mxGeometry>
        </mxCell>
        <mxCell id="Zqo0xz4QBt4HZKykq4dD-7" value="" style="curved=1;endArrow=none;html=1;rounded=0;endFill=0;strokeWidth=0.6;strokeColor=#9875a7;" parent="1" edge="1">
          <mxGeometry width="50" height="50" relative="1" as="geometry">
            <mxPoint x="240" y="136" as="sourcePoint" />
            <mxPoint x="480" y="106" as="targetPoint" />
            <Array as="points">
              <mxPoint x="250" y="136" />
              <mxPoint x="250" y="156" />
              <mxPoint x="290" y="166" />
              <mxPoint x="340" y="166" />
              <mxPoint x="340" y="146" />
              <mxPoint x="410" y="146" />
              <mxPoint x="410" y="106" />
            </Array>
          </mxGeometry>
        </mxCell>
        <mxCell id="Zqo0xz4QBt4HZKykq4dD-19" value="" style="endArrow=none;html=1;rounded=0;strokeWidth=0.6;strokeColor=#d89f09;" parent="1" edge="1">
          <mxGeometry width="50" height="50" relative="1" as="geometry">
            <mxPoint x="200" y="45" as="sourcePoint" />
            <mxPoint x="240" y="45" as="targetPoint" />
          </mxGeometry>
        </mxCell>
        <mxCell id="Zqo0xz4QBt4HZKykq4dD-13" value="" style="endArrow=none;html=1;rounded=0;strokeWidth=0.6;strokeColor=#ad615e;" parent="1" edge="1">
          <mxGeometry width="50" height="50" relative="1" as="geometry">
            <mxPoint x="200" y="91" as="sourcePoint" />
            <mxPoint x="240" y="91" as="targetPoint" />
          </mxGeometry>
        </mxCell>
        <mxCell id="Zqo0xz4QBt4HZKykq4dD-14" value="" style="curved=1;endArrow=none;html=1;rounded=0;endFill=0;strokeWidth=0.6;strokeColor=#c36e6a;" parent="1" edge="1">
          <mxGeometry width="50" height="50" relative="1" as="geometry">
            <mxPoint x="240" y="91" as="sourcePoint" />
            <mxPoint x="480" y="61" as="targetPoint" />
            <Array as="points">
              <mxPoint x="250" y="91" />
              <mxPoint x="250" y="111" />
              <mxPoint x="290" y="121" />
              <mxPoint x="340" y="121" />
              <mxPoint x="340" y="101" />
              <mxPoint x="410" y="101" />
              <mxPoint x="410" y="61" />
            </Array>
          </mxGeometry>
        </mxCell>
        <mxCell id="Zqo0xz4QBt4HZKykq4dD-23" value="" style="endArrow=none;dashed=1;html=1;rounded=0;strokeWidth=0.8;" parent="1" edge="1">
          <mxGeometry width="50" height="50" relative="1" as="geometry">
            <mxPoint x="441" y="80" as="sourcePoint" />
            <mxPoint x="372" y="80" as="targetPoint" />
          </mxGeometry>
        </mxCell>
        <mxCell id="Zqo0xz4QBt4HZKykq4dD-17" value="" style="curved=1;endArrow=none;html=1;rounded=0;endFill=0;strokeWidth=0.6;strokeColor=#d89f09;" parent="1" edge="1">
          <mxGeometry width="50" height="50" relative="1" as="geometry">
            <mxPoint x="240" y="45" as="sourcePoint" />
            <mxPoint x="480" y="15" as="targetPoint" />
            <Array as="points">
              <mxPoint x="250" y="45" />
              <mxPoint x="250" y="65" />
              <mxPoint x="290" y="75" />
              <mxPoint x="340" y="75" />
              <mxPoint x="340" y="55" />
              <mxPoint x="410" y="55" />
              <mxPoint x="410" y="15" />
            </Array>
          </mxGeometry>
        </mxCell>
        <mxCell id="Zqo0xz4QBt4HZKykq4dD-24" value="" style="endArrow=none;dashed=1;html=1;rounded=0;strokeWidth=0.8;" parent="1" edge="1">
          <mxGeometry width="50" height="50" relative="1" as="geometry">
            <mxPoint x="403" y="106" as="sourcePoint" />
            <mxPoint x="418" y="61" as="targetPoint" />
          </mxGeometry>
        </mxCell>
        <mxCell id="Zqo0xz4QBt4HZKykq4dD-26" value="&lt;font style=&quot;font-size: 14px;&quot;&gt;\(T_{\mathrm{{outlet}}}\)&lt;/font&gt;" style="text;html=1;strokeColor=none;fillColor=none;align=center;verticalAlign=middle;whiteSpace=wrap;rounded=0;" parent="1" vertex="1">
          <mxGeometry x="143" y="115" width="60" height="30" as="geometry" />
        </mxCell>
        <mxCell id="Zqo0xz4QBt4HZKykq4dD-27" value="&lt;font style=&quot;font-size: 14px;&quot;&gt;\(T_{\mathrm{{abs}}}\)&lt;/font&gt;" style="text;html=1;strokeColor=none;fillColor=none;align=center;verticalAlign=middle;whiteSpace=wrap;rounded=0;" parent="1" vertex="1">
          <mxGeometry x="143" y="70" width="60" height="30" as="geometry" />
        </mxCell>
        <mxCell id="Zqo0xz4QBt4HZKykq4dD-28" value="&lt;font style=&quot;font-size: 14px;&quot;&gt;\(P_{\mathrm{{solar}}}\)&lt;/font&gt;" style="text;html=1;strokeColor=none;fillColor=none;align=center;verticalAlign=middle;whiteSpace=wrap;rounded=0;" parent="1" vertex="1">
          <mxGeometry x="143" y="20" width="60" height="30" as="geometry" />
        </mxCell>
        <mxCell id="Zqo0xz4QBt4HZKykq4dD-29" value="&lt;font style=&quot;font-size: 14px;&quot;&gt;\(\dot{m}_{\mathrm{{abs}}}\)&lt;/font&gt;" style="text;html=1;strokeColor=none;fillColor=none;align=center;verticalAlign=middle;whiteSpace=wrap;rounded=0;" parent="1" vertex="1">
          <mxGeometry x="143" y="160" width="60" height="30" as="geometry" />
        </mxCell>
        <mxCell id="Zqo0xz4QBt4HZKykq4dD-30" value="&lt;font style=&quot;font-size: 14px;&quot;&gt;\(cloud\)&lt;/font&gt;" style="text;html=1;strokeColor=none;fillColor=none;align=center;verticalAlign=middle;whiteSpace=wrap;rounded=0;" parent="1" vertex="1">
          <mxGeometry x="143" y="200" width="60" height="30" as="geometry" />
        </mxCell>
        <mxCell id="Zqo0xz4QBt4HZKykq4dD-31" value="&lt;font style=&quot;font-size: 14px;&quot;&gt;\(t_1\)&lt;/font&gt;" style="text;html=1;strokeColor=none;fillColor=none;align=center;verticalAlign=middle;whiteSpace=wrap;rounded=0;" parent="1" vertex="1">
          <mxGeometry x="220" y="240" width="60" height="30" as="geometry" />
        </mxCell>
        <mxCell id="Zqo0xz4QBt4HZKykq4dD-32" value="&lt;font style=&quot;font-size: 14px;&quot;&gt;\(t_2\)&lt;/font&gt;" style="text;html=1;strokeColor=none;fillColor=none;align=center;verticalAlign=middle;whiteSpace=wrap;rounded=0;" parent="1" vertex="1">
          <mxGeometry x="300" y="240" width="60" height="30" as="geometry" />
        </mxCell>
        <mxCell id="Zqo0xz4QBt4HZKykq4dD-33" value="&lt;font style=&quot;font-size: 14px;&quot;&gt;\(t_3\)&lt;/font&gt;" style="text;html=1;strokeColor=none;fillColor=none;align=center;verticalAlign=middle;whiteSpace=wrap;rounded=0;" parent="1" vertex="1">
          <mxGeometry x="380" y="240" width="60" height="30" as="geometry" />
        </mxCell>
        <mxCell id="Zqo0xz4QBt4HZKykq4dD-34" value="&lt;font style=&quot;font-size: 14px;&quot;&gt;\(\Delta T_{\mathrm{{max}}}\)&lt;/font&gt;" style="text;html=1;strokeColor=none;fillColor=none;align=center;verticalAlign=middle;whiteSpace=wrap;rounded=0;" parent="1" vertex="1">
          <mxGeometry x="400" y="80" width="60" height="30" as="geometry" />
        </mxCell>
        <mxCell id="Zqo0xz4QBt4HZKykq4dD-36" value="&lt;font style=&quot;font-size: 14px;&quot;&gt;\(T_{\mathrm{{max}}}\)&lt;/font&gt;" style="text;html=1;strokeColor=none;fillColor=none;align=center;verticalAlign=middle;whiteSpace=wrap;rounded=0;" parent="1" vertex="1">
          <mxGeometry x="430" y="62" width="60" height="30" as="geometry" />
        </mxCell>
        <mxCell id="Zqo0xz4QBt4HZKykq4dD-37" value="&lt;font style=&quot;font-size: 14px;&quot;&gt;\(t\)&lt;/font&gt;" style="text;html=1;strokeColor=none;fillColor=none;align=center;verticalAlign=middle;whiteSpace=wrap;rounded=0;" parent="1" vertex="1">
          <mxGeometry x="319" y="259" width="60" height="30" as="geometry" />
        </mxCell>
      </root>
    </mxGraphModel>
  </diagram>
</mxfile>
